<svg xmlns="http://www.w3.org/2000/svg" viewBox="0 0 1200 1500"><defs><style>.cls-1{fill:#f7dece;}</style></defs><g id="Outline"><rect x="400" width="400" height="100"/><rect x="800" y="100" width="200" height="100"/><rect x="1000" y="200" width="100" height="200"/><rect x="1100" y="400" width="100" height="300"/><rect x="1000" y="700" width="100" height="200"/><rect x="1100" y="800" width="100" height="300"/><rect x="1000" y="1100" width="100" height="200"/><rect x="500" y="1300" width="500" height="100"/><rect x="700" y="1000" width="100" height="300"/><rect x="800" y="900" width="200" height="100"/><rect x="400" y="1000" width="300" height="100"/><rect x="700" y="700" width="100" height="200"/><rect x="400" y="700" width="100" height="200"/><rect x="200" y="900" width="200" height="100"/><rect x="300" y="1200" width="200" height="100"/><rect x="300" y="1400" width="300" height="100"/><rect x="200" y="1100" width="100" height="300"/><rect x="100" y="1000" width="100" height="200"/><rect y="800" width="100" height="300"/><rect x="100" y="700" width="100" height="200"/><rect y="400" width="100" height="300"/><rect x="100" y="200" width="100" height="200"/><rect x="200" y="100" width="200" height="100"/></g><g id="Fill"><polygon class="cls-1" points="400 100 800 100 800 200 1000 200 1000 400 1100 400 1100 700 1000 700 1000 900 800 900 800 700 700 700 700 900 800 900 800 1000 400 1000 400 900 500 900 500 700 400 700 400 900 200 900 200 700 100 700 100 400 200 400 200 200 400 200 400 100"/><polygon class="cls-1" points="1000 900 1100 900 1100 1100 1000 1100 1000 1300 800 1300 800 1000 1000 1000 1000 900"/><polygon class="cls-1" points="200 900 100 900 100 1000 200 1000 200 1100 300 1100 300 1200 500 1200 500 1300 300 1300 300 1400 500 1400 500 1300 700 1300 700 1100 400 1100 400 1000 200 1000 200 900"/></g></svg>