<svg xmlns="http://www.w3.org/2000/svg" viewBox="0 0 1200 1500"><defs><style>.cls-1{fill:#f7dece;}</style></defs><g id="Outline"><rect x="300" width="600" height="100"/><rect x="900" y="100" width="100" height="100"/><rect x="1000" y="200" width="100" height="600"/><rect x="900" y="800" width="100" height="200"/><rect x="700" y="900" width="200" height="200"/><rect x="200" y="100" width="100" height="100"/><rect x="100" y="200" width="100" height="700"/><rect x="200" y="900" width="100" height="100"/><rect x="300" y="600" width="100" height="200"/><rect x="300" y="1000" width="400" height="100"/><rect x="600" y="1100" width="100" height="200"/><rect x="1000" y="1000" width="100" height="200"/><rect x="900" y="1100" width="100" height="200"/><rect x="1100" y="1200" width="100" height="200"/><rect x="900" y="1400" width="200" height="100"/><rect x="700" y="1300" width="200" height="100"/><rect x="300" y="1100" width="100" height="200"/><rect x="400" y="1200" width="100" height="300"/><rect x="500" y="1300" width="100" height="100"/><rect x="200" y="1400" width="200" height="100"/><rect x="100" y="1300" width="100" height="100"/><rect y="1200" width="100" height="100"/><rect x="100" y="1100" width="200" height="100"/></g><g id="Fill"><polygon class="cls-1" points="300 100 900 100 900 200 1000 200 1000 800 900 800 900 900 700 900 700 1000 300 1000 300 900 200 900 200 500 300 600 300 800 400 800 400 600 300 600 200 500 200 200 300 200 300 100"/><polygon class="cls-1" points="400 1100 600 1100 600 1300 500 1300 500 1200 400 1200 400 1100"/><polygon class="cls-1" points="1000 1000 900 1000 900 1400 1100 1400 1100 1200 1000 1200 1000 1300 600 1300 600 1400 700 1400 700 1100 1000 1100 1000 1000"/><polygon class="cls-1" points="100 1200 300 1200 300 1300 400 1300 400 1400 200 1400 200 1300 100 1300 100 1200"/></g></svg>