<svg xmlns="http://www.w3.org/2000/svg" viewBox="0 0 1000 1600"><defs><style>.cls-1{fill:#f7dece;}</style></defs><g id="Outline"><rect x="200" width="600" height="100"/><rect x="800" y="100" width="100" height="100"/><rect x="900" y="200" width="100" height="600"/><rect x="800" y="800" width="100" height="200"/><rect x="700" y="900" width="100" height="100"/><rect x="600" y="900" width="100" height="500"/><rect x="700" y="1300" width="200" height="100"/><rect x="900" y="1000" width="100" height="300"/><rect x="200" y="1000" width="400" height="100"/><rect x="100" y="900" width="100" height="100"/><rect y="200" width="100" height="700"/><rect x="100" y="100" width="100" height="100"/><rect x="200" y="600" width="100" height="200"/><rect x="200" y="1100" width="100" height="300"/><rect x="300" y="1300" width="100" height="100"/><rect x="100" y="1400" width="100" height="100"/><rect x="200" y="1500" width="500" height="100"/><rect x="400" y="1400" width="200" height="100"/><rect x="700" y="1400" width="100" height="100"/></g><g id="Fill"><polygon class="cls-1" points="200 100 200 200 100 200 100 500 200 600 300 600 300 800 200 800 200 600 100 500 100 900 200 900 200 1000 600 1000 600 900 800 900 800 800 900 800 900 200 800 200 800 100 200 100"/><rect class="cls-1" x="700" y="1000" width="200" height="300"/><polygon class="cls-1" points="300 1100 600 1100 600 1500 700 1500 700 1400 200 1400 200 1500 400 1500 400 1300 300 1300 300 1100"/></g></svg>