<svg xmlns="http://www.w3.org/2000/svg" viewBox="-2 -1 16 16"><defs><style>.cls-1{fill:#f7dece;}</style></defs><g id="Outline"><rect x="4" width="4" height="1"/><rect x="8" y="1" width="2" height="1"/><rect x="10" y="2" width="1" height="2"/><rect x="11" y="4" width="1" height="3"/><rect x="10" y="7" width="1" height="2"/><rect x="11" y="8" width="1" height="3"/><rect x="10" y="11" width="1" height="2"/><rect x="5" y="13" width="5" height="1"/><rect x="7" y="10" width="1" height="3"/><rect x="8" y="9" width="2" height="1"/><rect x="4" y="10" width="3" height="1"/><rect x="7" y="7" width="1" height="2"/><rect x="4" y="7" width="1" height="2"/><rect x="2" y="9" width="2" height="1"/><rect x="3" y="12" width="2" height="1"/><rect x="3" y="14" width="3" height="1"/><rect x="2" y="11" width="1" height="3"/><rect x="1" y="10" width="1" height="2"/><rect y="8" width="1" height="3"/><rect x="1" y="7" width="1" height="2"/><rect y="4" width="1" height="3"/><rect x="1" y="2" width="1" height="2"/><rect x="2" y="1" width="2" height="1"/></g><g id="Fill"><polygon class="cls-1" points="4 1 8 1 8 2 10 2 10 4 11 4 11 7 10 7 10 9 8 9 8 7 7 7 7 9 8 9 8 10 4 10 4 9 5 9 5 7 4 7 4 9 2 9 2 7 1 7 1 4 2 4 2 2 4 2 4 1"/><polygon class="cls-1" points="10 9 11 9 11 11 10 11 10 13 8 13 8 10 10 10 10 9"/><polygon class="cls-1" points="2 9 1 9 1 10 2 10 2 11 3 11 3 12 5 12 5 13 3 13 3 14 5 14 5 13 7 13 7 11 4 11 4 10 2 10 2 9"/></g></svg>