<svg xmlns="http://www.w3.org/2000/svg" viewBox="-3 0 16 16"><defs><style>.cls-1{fill:#f7dece;}</style></defs><g id="Outline"><rect x="2" width="6" height="1"/><rect x="8" y="1" width="1" height="1"/><rect x="9" y="2" width="1" height="6"/><rect x="8" y="8" width="1" height="2"/><rect x="7" y="9" width="1" height="1"/><rect x="6" y="9" width="1" height="5"/><rect x="7" y="13" width="2" height="1"/><rect x="9" y="10" width="1" height="3"/><rect x="2" y="10" width="4" height="1"/><rect x="1" y="9" width="1" height="1"/><rect y="2" width="1" height="7"/><rect x="1" y="1" width="1" height="1"/><rect x="2" y="6" width="1" height="2"/><rect x="2" y="11" width="1" height="3"/><rect x="3" y="13" width="1" height="1"/><rect x="1" y="14" width="1" height="1"/><rect x="2" y="15" width="5" height="1"/><rect x="4" y="14" width="2" height="1"/><rect x="7" y="14" width="1" height="1"/></g><g id="Fill"><polygon class="cls-1" points="2 1 2 2 1 2 1 5 2 6 3 6 3 8 2 8 2 6 1 5 1 9 2 9 2 10 6 10 6 9 8 9 8 8 9 8 9 2 8 2 8 1 2 1"/><rect class="cls-1" x="7" y="10" width="2" height="3"/><polygon class="cls-1" points="3 11 6 11 6 15 7 15 7 14 2 14 2 15 4 15 4 13 3 13 3 11"/></g></svg>