<svg xmlns="http://www.w3.org/2000/svg" viewBox="-2 -1 16 16"><defs><style>.cls-1{fill:#f7dece;}</style></defs><g id="Outline"><rect x="3" width="6" height="1"/><rect x="9" y="1" width="1" height="1"/><rect x="10" y="2" width="1" height="6"/><rect x="9" y="8" width="1" height="2"/><rect x="7" y="9" width="2" height="2"/><rect x="2" y="1" width="1" height="1"/><rect x="1" y="2" width="1" height="7"/><rect x="2" y="9" width="1" height="1"/><rect x="3" y="6" width="1" height="2"/><rect x="3" y="10" width="4" height="1"/><rect x="6" y="11" width="1" height="2"/><rect x="10" y="10" width="1" height="2"/><rect x="9" y="11" width="1" height="2"/><rect x="11" y="12" width="1" height="2"/><rect x="9" y="14" width="2" height="1"/><rect x="7" y="13" width="2" height="1"/><rect x="3" y="11" width="1" height="2"/><rect x="4" y="12" width="1" height="3"/><rect x="5" y="13" width="1" height="1"/><rect x="2" y="14" width="2" height="1"/><rect x="1" y="13" width="1" height="1"/><rect y="12" width="1" height="1"/><rect x="1" y="11" width="2" height="1"/></g><g id="Fill"><polygon class="cls-1" points="3 1 9 1 9 2 10 2 10 8 9 8 9 9 7 9 7 10 3 10 3 9 2 9 2 5 3 6 3 8 4 8 4 6 3 6 2 5 2 2 3 2 3 1"/><polygon class="cls-1" points="4 11 6 11 6 13 5 13 5 12 4 12 4 11"/><polygon class="cls-1" points="10 10 9 10 9 14 11 14 11 12 10 12 10 13 6 13 6 14 7 14 7 11 10 11 10 10"/><polygon class="cls-1" points="1 12 3 12 3 13 4 13 4 14 2 14 2 13 1 13 1 12"/></g></svg>