<svg xmlns="http://www.w3.org/2000/svg" viewBox="-3 0 16 16"><defs><style>.cls-1{fill:#f7dece;}</style></defs><g id="Outline"><rect x="5" width="6" height="1" transform="translate(13 1) rotate(-180)"/><rect x="4" y="1" width="1" height="1" transform="translate(6 3) rotate(-180)"/><rect x="3" y="2" width="1" height="6" transform="translate(4 10) rotate(-180)"/><rect x="4" y="8" width="1" height="2" transform="translate(6 18) rotate(-180)"/><rect x="5" y="9" width="1" height="1" transform="translate(8 19) rotate(-180)"/><rect x="6" y="9" width="1" height="5" transform="translate(10 23) rotate(-180)"/><rect x="4" y="13" width="2" height="1" transform="translate(7 27) rotate(-180)"/><rect x="3" y="10" width="1" height="3" transform="translate(4 23) rotate(-180)"/><rect x="7" y="10" width="4" height="1" transform="translate(15 21) rotate(-180)"/><rect x="11" y="9" width="1" height="1" transform="translate(20 19) rotate(-180)"/><rect x="12" y="2" width="1" height="7" transform="translate(22 11) rotate(-180)"/><rect x="11" y="1" width="1" height="1" transform="translate(20 3) rotate(-180)"/><rect x="10" y="6" width="1" height="2" transform="translate(18 14) rotate(-180)"/><rect x="10" y="11" width="1" height="3" transform="translate(18 25) rotate(-180)"/><rect x="9" y="13" width="1" height="1" transform="translate(16 27) rotate(-180)"/><rect x="11" y="14" width="1" height="1" transform="translate(20 29) rotate(-180)"/><rect x="6" y="15" width="5" height="1" transform="translate(14 31) rotate(-180)"/><rect x="7" y="14" width="2" height="1" transform="translate(13 29) rotate(-180)"/><rect x="5" y="14" width="1" height="1" transform="translate(8 29) rotate(-180)"/></g><g id="Fill"><polygon class="cls-1" points="8 1 8 2 9 2 9 5 8 6 7 6 7 8 8 8 8 6 9 5 9 9 8 9 8 10 4 10 4 9 2 9 2 8 1 8 1 2 2 2 2 1 8 1"/><rect class="cls-1" x="1" y="10" width="2" height="3"/><polygon class="cls-1" points="7 11 4 11 4 15 3 15 3 14 8 14 8 15 6 15 6 13 7 13 7 11"/></g></svg>