<svg xmlns="http://www.w3.org/2000/svg" viewBox="-2 -1 16 16"><defs><style>.cls-1{fill:#f7dece;}</style></defs><g id="Outline"><rect x="5" y="1" width="6" height="1" transform="translate(14 2) rotate(-180)"/><rect x="4" y="2" width="1" height="1" transform="translate(7 4) rotate(-180)"/><rect x="3" y="3" width="1" height="6" transform="translate(5 11) rotate(-180)"/><rect x="4" y="9" width="1" height="2" transform="translate(7 19) rotate(-180)"/><rect x="5" y="10" width="2" height="2" transform="translate(10 21) rotate(-180)"/><rect x="11" y="2" width="1" height="1" transform="translate(21 4) rotate(-180)"/><rect x="12" y="3" width="1" height="7" transform="translate(23 12) rotate(-180)"/><rect x="11" y="10" width="1" height="1" transform="translate(21 20) rotate(-180)"/><rect x="10" y="7" width="1" height="2" transform="translate(19 15) rotate(-180)"/><rect x="7" y="11" width="4" height="1" transform="translate(16 22) rotate(-180)"/><rect x="7" y="12" width="1" height="2" transform="translate(13 25) rotate(-180)"/><rect x="3" y="11" width="1" height="2" transform="translate(5 23) rotate(-180)"/><rect x="4" y="12" width="1" height="2" transform="translate(7 25) rotate(-180)"/><rect x="2" y="13" width="1" height="2" transform="translate(3 27) rotate(-180)"/><rect x="3" y="15" width="2" height="1" transform="translate(6 30) rotate(-180)"/><rect x="5" y="14" width="2" height="1" transform="translate(10 28) rotate(-180)"/><rect x="10" y="12" width="1" height="2" transform="translate(19 25) rotate(-180)"/><rect x="9" y="13" width="1" height="3" transform="translate(17 28) rotate(-180)"/><rect x="8" y="14" width="1" height="1" transform="translate(15 28) rotate(-180)"/><rect x="10" y="15" width="2" height="1" transform="translate(20 30) rotate(-180)"/><rect x="12" y="14" width="1" height="1" transform="translate(23 28) rotate(-180)"/><rect x="13" y="13" width="1" height="1" transform="translate(25 26) rotate(-180)"/><rect x="11" y="12" width="2" height="1" transform="translate(22 24) rotate(-180)"/></g><g id="Fill"><polygon class="cls-1" points="9 1 3 1 3 2 2 2 2 8 3 8 3 9 5 9 5 10 9 10 9 9 10 9 10 5 9 6 9 8 8 8 8 6 9 6 10 5 10 2 9 2 9 1"/><polygon class="cls-1" points="8 11 6 11 6 13 7 13 7 12 8 12 8 11"/><polygon class="cls-1" points="2 10 3 10 3 14 1 14 1 12 2 12 2 13 6 13 6 14 5 14 5 11 2 11 2 10"/><polygon class="cls-1" points="11 12 9 12 9 13 8 13 8 14 10 14 10 13 11 13 11 12"/></g></svg>