<svg xmlns="http://www.w3.org/2000/svg" viewBox="-2 -1 16 16"><defs><style>.cls-1{fill:#f7dece;}</style></defs><g id="Outline"><rect x="4" width="4" height="1"/><rect x="8" y="1" width="2" height="1"/><rect x="10" y="2" width="1" height="2"/><rect x="11" y="4" width="1" height="3"/><rect x="10" y="7" width="1" height="2"/><rect x="11" y="9" width="1" height="2"/><rect x="8" y="9" width="2" height="1"/><rect x="9" y="10" width="1" height="1"/><rect x="10" y="11" width="1" height="3"/><rect x="3" y="11" width="7" height="1"/><rect x="3" y="10" width="5" height="1"/><rect y="9" width="4" height="1"/><rect x="1" y="7" width="1" height="2"/><rect x="2" y="1" width="2" height="1"/><rect y="4" width="1" height="3"/><rect x="1" y="2" width="1" height="2"/><rect y="10" width="1" height="3"/><rect x="1" y="12" width="2" height="2"/><rect x="3" y="13" width="4" height="1"/><rect x="7" y="14" width="3" height="1"/></g><g id="Fill"><polygon class="cls-1" points="3 12 1 12 1 10 3 10 3 13 7 13 7 14 10 14 10 12 3 12"/><polygon class="cls-1" points="11 9 8 9 8 10 9 10 9 11 8 11 8 10 4 10 4 9 2 9 2 7 1 7 1 4 2 4 2 2 4 2 4 1 8 1 8 2 10 2 10 4 11 4 11 7 10 7 10 11 11 11 11 9"/></g></svg>