<svg xmlns="http://www.w3.org/2000/svg" viewBox="-1 0 16 16"><defs><style>.cls-1{fill:#f7dece;}</style></defs><g id="Outline"><rect x="5" width="4" height="1"/><rect x="9" y="1" width="2" height="1"/><rect x="11" y="2" width="1" height="2"/><rect x="12" y="4" width="1" height="3"/><rect x="11" y="7" width="1" height="2"/><rect x="12" y="9" width="1" height="1"/><rect x="13" y="10" width="1" height="3"/><rect x="12" y="13" width="1" height="1"/><rect x="11" y="12" width="1" height="3"/><rect x="10" y="11" width="1" height="1"/><rect x="9" y="9" width="2" height="1"/><rect x="5" y="10" width="4" height="1"/><rect x="3" y="9" width="2" height="1"/><rect x="8" y="15" width="3" height="1"/><rect x="4" y="12" width="6" height="1"/><rect x="6" y="14" width="2" height="1"/><rect x="3" y="11" width="1" height="1"/><rect x="3" y="15" width="3" height="1"/><rect x="2" y="12" width="1" height="3"/><rect x="1" y="13" width="1" height="1"/><rect y="10" width="1" height="3"/><rect x="1" y="9" width="1" height="1"/><rect x="2" y="7" width="1" height="2"/><rect x="1" y="4" width="1" height="3"/><rect x="2" y="2" width="1" height="2"/><rect x="3" y="1" width="2" height="1"/></g><g id="Fill"><polygon class="cls-1" points="11 9 11 7 12 7 12 4 11 4 11 2 9 2 9 1 5 1 5 2 3 2 3 4 2 4 2 7 3 7 3 9 5 9 5 10 9 10 9 9 12 9 12 10 13 10 13 13 12 13 12 12 11 12 11 11 10 11 10 12 11 12 11 15 8 15 8 14 6 14 6 15 3 15 3 12 4 12 4 13 10 13 10 12 4 12 4 11 3 11 3 12 2 12 2 13 1 13 1 10 2 10 2 9 3 9 3 10 5 10 5 11 9 11 9 10 11 10 11 9"/></g></svg>