<svg xmlns="http://www.w3.org/2000/svg" viewBox="0 0 1200 1500"><defs><style>.cls-1{fill:#f7dece;}</style></defs><g id="Outline"><rect x="500" y="100" width="600" height="100" transform="translate(1400 200) rotate(-180)"/><rect x="400" y="200" width="100" height="100" transform="translate(700 400) rotate(-180)"/><rect x="300" y="300" width="100" height="600" transform="translate(500 1100) rotate(-180)"/><rect x="400" y="900" width="100" height="200" transform="translate(700 1900) rotate(-180)"/><rect x="500" y="1000" width="200" height="200" transform="translate(1000 2100) rotate(-180)"/><rect x="1100" y="200" width="100" height="100" transform="translate(2100 400) rotate(-180)"/><rect x="1200" y="300" width="100" height="700" transform="translate(2300 1200) rotate(-180)"/><rect x="1100" y="1000" width="100" height="100" transform="translate(2100 2000) rotate(-180)"/><rect x="1000" y="700" width="100" height="200" transform="translate(1900 1500) rotate(-180)"/><rect x="700" y="1100" width="400" height="100" transform="translate(1600 2200) rotate(-180)"/><rect x="700" y="1200" width="100" height="200" transform="translate(1300 2500) rotate(-180)"/><rect x="300" y="1100" width="100" height="200" transform="translate(500 2300) rotate(-180)"/><rect x="400" y="1200" width="100" height="200" transform="translate(700 2500) rotate(-180)"/><rect x="200" y="1300" width="100" height="200" transform="translate(300 2700) rotate(-180)"/><rect x="300" y="1500" width="200" height="100" transform="translate(600 3000) rotate(-180)"/><rect x="500" y="1400" width="200" height="100" transform="translate(1000 2800) rotate(-180)"/><rect x="1000" y="1200" width="100" height="200" transform="translate(1900 2500) rotate(-180)"/><rect x="900" y="1300" width="100" height="300" transform="translate(1700 2800) rotate(-180)"/><rect x="800" y="1400" width="100" height="100" transform="translate(1500 2800) rotate(-180)"/><rect x="1000" y="1500" width="200" height="100" transform="translate(2000 3000) rotate(-180)"/><rect x="1200" y="1400" width="100" height="100" transform="translate(2300 2800) rotate(-180)"/><rect x="1300" y="1300" width="100" height="100" transform="translate(2500 2600) rotate(-180)"/><rect x="1100" y="1200" width="200" height="100" transform="translate(2200 2400) rotate(-180)"/></g><g id="Fill"><polygon class="cls-1" points="900 100 300 100 300 200 200 200 200 800 300 800 300 900 500 900 500 1000 900 1000 900 900 1000 900 1000 500 900 600 900 800 800 800 800 600 900 600 1000 500 1000 200 900 200 900 100"/><polygon class="cls-1" points="800 1100 600 1100 600 1300 700 1300 700 1200 800 1200 800 1100"/><polygon class="cls-1" points="200 1000 300 1000 300 1400 100 1400 100 1200 200 1200 200 1300 600 1300 600 1400 500 1400 500 1100 200 1100 200 1000"/><polygon class="cls-1" points="1100 1200 900 1200 900 1300 800 1300 800 1400 1000 1400 1000 1300 1100 1300 1100 1200"/></g></svg>