<svg xmlns="http://www.w3.org/2000/svg" viewBox="0 0 1000 1600"><defs><style>.cls-1{fill:#f7dece;}</style></defs><g id="Outline"><rect x="500" width="600" height="100" transform="translate(1300 100) rotate(-180)"/><rect x="400" y="100" width="100" height="100" transform="translate(600 300) rotate(-180)"/><rect x="300" y="200" width="100" height="600" transform="translate(400 1000) rotate(-180)"/><rect x="400" y="800" width="100" height="200" transform="translate(600 1800) rotate(-180)"/><rect x="500" y="900" width="100" height="100" transform="translate(800 1900) rotate(-180)"/><rect x="600" y="900" width="100" height="500" transform="translate(1000 2300) rotate(-180)"/><rect x="400" y="1300" width="200" height="100" transform="translate(700 2700) rotate(-180)"/><rect x="300" y="1000" width="100" height="300" transform="translate(400 2300) rotate(-180)"/><rect x="700" y="1000" width="400" height="100" transform="translate(1500 2100) rotate(-180)"/><rect x="1100" y="900" width="100" height="100" transform="translate(2000 1900) rotate(-180)"/><rect x="1200" y="200" width="100" height="700" transform="translate(2200 1100) rotate(-180)"/><rect x="1100" y="100" width="100" height="100" transform="translate(2000 300) rotate(-180)"/><rect x="1000" y="600" width="100" height="200" transform="translate(1800 1400) rotate(-180)"/><rect x="1000" y="1100" width="100" height="300" transform="translate(1800 2500) rotate(-180)"/><rect x="900" y="1300" width="100" height="100" transform="translate(1600 2700) rotate(-180)"/><rect x="1100" y="1400" width="100" height="100" transform="translate(2000 2900) rotate(-180)"/><rect x="600" y="1500" width="500" height="100" transform="translate(1400 3100) rotate(-180)"/><rect x="700" y="1400" width="200" height="100" transform="translate(1300 2900) rotate(-180)"/><rect x="500" y="1400" width="100" height="100" transform="translate(800 2900) rotate(-180)"/></g><g id="Fill"><polygon class="cls-1" points="800 100 800 200 900 200 900 500 800 600 700 600 700 800 800 800 800 600 900 500 900 900 800 900 800 1000 400 1000 400 900 200 900 200 800 100 800 100 200 200 200 200 100 800 100"/><rect class="cls-1" x="100" y="1000" width="200" height="300"/><polygon class="cls-1" points="700 1100 400 1100 400 1500 300 1500 300 1400 800 1400 800 1500 600 1500 600 1300 700 1300 700 1100"/></g></svg>