<svg xmlns="http://www.w3.org/2000/svg" viewBox="0 0 1400 1600"><defs><style>.cls-1{fill:#f7dece;}</style></defs><g id="Outline"><rect x="500" width="400" height="100"/><rect x="900" y="100" width="200" height="100"/><rect x="1100" y="200" width="100" height="200"/><rect x="1200" y="400" width="100" height="300"/><rect x="1100" y="700" width="100" height="200"/><rect x="1200" y="900" width="100" height="100"/><rect x="1300" y="1000" width="100" height="300"/><rect x="1200" y="1300" width="100" height="100"/><rect x="1100" y="1200" width="100" height="300"/><rect x="1000" y="1100" width="100" height="100"/><rect x="900" y="900" width="200" height="100"/><rect x="500" y="1000" width="400" height="100"/><rect x="300" y="900" width="200" height="100"/><rect x="800" y="1500" width="300" height="100"/><rect x="400" y="1200" width="600" height="100"/><rect x="600" y="1400" width="200" height="100"/><rect x="300" y="1100" width="100" height="100"/><rect x="300" y="1500" width="300" height="100"/><rect x="200" y="1200" width="100" height="300"/><rect x="100" y="1300" width="100" height="100"/><rect y="1000" width="100" height="300"/><rect x="100" y="900" width="100" height="100"/><rect x="200" y="700" width="100" height="200"/><rect x="100" y="400" width="100" height="300"/><rect x="200" y="200" width="100" height="200"/><rect x="300" y="100" width="200" height="100"/></g><g id="Fill"><polygon class="cls-1" points="1100 900 1100 700 1200 700 1200 400 1100 400 1100 200 900 200 900 100 500 100 500 200 300 200 300 400 200 400 200 700 300 700 300 900 500 900 500 1000 900 1000 900 900 1200 900 1200 1000 1300 1000 1300 1300 1200 1300 1200 1200 1100 1200 1100 1100 1000 1100 1000 1200 1100 1200 1100 1500 800 1500 800 1400 600 1400 600 1500 300 1500 300 1200 400 1200 400 1300 1000 1300 1000 1200 400 1200 400 1100 300 1100 300 1200 200 1200 200 1300 100 1300 100 1000 200 1000 200 900 300 900 300 1000 500 1000 500 1100 900 1100 900 1000 1100 1000 1100 900"/></g></svg>